# xmcd
#
# Track frame offsets:
#	150
#	12673
#	25139
#	36578
#	49873
#	64635
#	79761
#	91717
#	102408
#	112952
#	132034
#	164607
#	180317
#	195069
#	224672
#	245635
#	263277
#	274295
#	289349
#	301227
#	308470
#	321573
#	336915
#
# Disc length: 4687 seconds
#
# Revision: 1
# Processed by: cddbd v1.5.2PL0 Copyright (c) Steve Scherf et al.
# Submitted via: EasyCDDAExtractor 10.0.2.1
#
DISCID=45124d17
DTITLE=Jessi Colter - I'm Jessi Colter - Diamond In The Rough
DYEAR=2011
DGENRE=Country
TTITLE0=Is There Any Way (You'd Stay Forever)
TTITLE1=I Hear A Song
TTITLE2=Come On In
TTITLE3=You Ain't Never Been Loved (Like I'm Gonna Love You)
TTITLE4=Loves The Onlly Chain
TTITLE5=I'm Not Lisa
TTITLE6=For The First Time
TTITLE7=Who Walkes Thru Your Memory (Billy Jo)
TTITLE8=What's Happened To Blue Eyes
TTITLE9=Storms Never Last
TTITLE10=Diamond In The Rough
TTITLE11=Get Back
TTITLE12=Would You Leave Me Now
TTITLE13=Hey Jude
TTITLE14=Oh Will (Who  Made It Rain Last Night)
TTITLE15=I Thought I Heard You Calling My Name
TTITLE16=Ain't No Way
TTITLE17=You Hung The Moon (Didn't You Waylon)
TTITLE18=A Woman's Heart (Is A Handy Place To Be)
TTITLE19=Oh Will (Reprise)
TTITLE20=Black Haired Boy (Bonus Track)
TTITLE21=That's The Way A Cowboy Rocks and Rolls (Bonus Track
TTITLE22=My Cowboy's Last Ride (Bouns Track)
EXTD=
EXTT0=
EXTT1=
EXTT2=
EXTT3=
EXTT4=
EXTT5=
EXTT6=
EXTT7=
EXTT8=
EXTT9=
EXTT10=
EXTT11=
EXTT12=
EXTT13=
EXTT14=
EXTT15=
EXTT16=
EXTT17=
EXTT18=
EXTT19=
EXTT20=
EXTT21=
EXTT22=
PLAYORDER=
